# xmcd
#
# Track frame offsets:
#	150
#	35587
#	62005
#
# Disc length: 1190
#
# Revision: 1
# Processed by: cddbd v1.5.1PL0 Copyright (c) Steve Scherf et al.
# Submitted via: CDex 1.51
# Normalized: r0:TRMNUM
#
DISCID=2104a403
DTITLE=MariMari - Everyday, Under the Blue Blue Sky
DYEAR=1996
DGENRE=Rock
TTITLE0=Everyday, Under the Blue Blue Sky
TTITLE1=Sunday Clover
TTITLE2=Day in, Day out
EXTD=YEAR: 1996
EXTT0=
EXTT1=
EXTT2=
PLAYORDER=
